<svg xmlns="http://www.w3.org/2000/svg" width="20" height="18" viewBox="0 0 20 18"><g><g><path fill="#d9525c" d="M15.267 14.157H4.66v-.906l1.302-1.334V9.303c0-1.964 1.303-3.578 3.164-3.972V4.95c0-.465.373-.871.837-.871.465 0 .837.406.837.871v.382c1.86.394 3.164 2.007 3.164 3.972v2.612l1.302 1.335zm-5.303 2.235c-.638 0-1.16-.6-1.163-1.157h2.326c-.004.556-.525 1.157-1.163 1.157zm6.225-3.74l-1.144-1.173V9.304c0-2.168-1.285-4.03-3.21-4.784a1.928 1.928 0 0 0-1.87-1.518c-.912 0-1.676.649-1.87 1.518-1.925.753-3.21 2.616-3.21 4.784v2.175l-1.143 1.173a.553.553 0 0 0-.159.387v1.657a.54.54 0 0 0 .54.54h3.601c0 1.189 1.047 2.233 2.24 2.233 1.193 0 2.24-1.044 2.242-2.234h3.6a.54.54 0 0 0 .541-.539V13.04a.559.559 0 0 0-.158-.387z"/></g><g><path fill="#495058" d="M13.75 2.252a6.358 6.358 0 0 1 3.705 5.502.23.23 0 0 1-.23.238l-.69.003a.23.23 0 0 1-.23-.223 5.204 5.204 0 0 0-3.002-4.457.23.23 0 0 1-.121-.298l.262-.64a.23.23 0 0 1 .306-.125zM14.624.12a8.671 8.671 0 0 1 5.135 7.624.23.23 0 0 1-.23.237l-.69.003a.23.23 0 0 1-.23-.224 7.516 7.516 0 0 0-4.43-6.578.23.23 0 0 1-.122-.297l.26-.64a.231.231 0 0 1 .307-.125zM6.556 2.377l.262.64a.231.231 0 0 1-.12.298 5.204 5.204 0 0 0-3.003 4.457.23.23 0 0 1-.23.223l-.69-.003a.23.23 0 0 1-.23-.238A6.358 6.358 0 0 1 6.25 2.252a.23.23 0 0 1 .306.125zM5.682.244l.261.64a.23.23 0 0 1-.122.297 7.516 7.516 0 0 0-4.43 6.578.23.23 0 0 1-.23.224L.47 7.98a.23.23 0 0 1-.23-.237A8.671 8.671 0 0 1 5.374.12a.23.23 0 0 1 .307.125z"/></g></g></svg>